<svg width="758" height="685" viewBox="0 0 758 685" fill="none" xmlns="http://www.w3.org/2000/svg">
<path d="M621.874 370.01L621.644 366.643C621.644 366.643 623.112 366.539 625.578 366.544C628.056 366.515 631.575 366.635 635.786 366.957C644.205 367.577 655.374 369.321 666.197 372.506C677.067 375.542 687.414 380.26 694.85 384.329C698.557 386.404 701.656 388.112 703.664 389.589C705.721 390.975 706.9 391.765 706.9 391.765L705.046 394.56C705.046 394.56 703.898 393.789 701.891 392.437C699.936 390.994 696.909 389.33 693.293 387.305C686.036 383.336 675.933 378.722 665.295 375.751C654.707 372.636 643.763 370.927 635.535 370.324C631.423 370.007 627.983 369.892 625.59 369.92C623.185 369.915 621.874 370.01 621.874 370.01Z" fill="#108C6C"/>
<path d="M710.253 409.76C707.762 407.776 706.246 405.036 705.688 402.132C705.163 399.198 705.408 396.37 707.073 393.904C708.679 391.52 711.447 389.986 714.427 389.967C717.419 389.906 720.806 391.099 723.73 393.459C726.56 395.93 728.17 399.266 728.612 402.29C729.04 405.348 728.207 408.208 726.138 410.259C724.07 412.315 721.201 413.221 718.336 413.127C715.441 413.053 712.65 411.859 710.253 409.76Z" fill="#FFD302"/>
<path d="M711.427 402.869C711.427 402.869 712.75 403.547 714.627 404.14C716.522 404.711 718.744 405.496 720.908 405.252C720.928 403.074 720.092 400.54 719.022 398.809C717.967 397.057 716.924 395.834 716.924 395.834C720.124 395.005 722.655 393.463 724.357 392.104C726.063 390.749 726.939 389.576 726.939 389.576C723.141 387.583 719.77 386.675 716.898 386.457C714.042 386.209 711.486 386.916 709.556 387.661C705.647 389.24 703.69 391.628 703.69 391.628C703.69 391.628 702.421 394.479 702.306 398.61C702.214 400.712 702.521 402.952 703.157 405.593C703.817 408.208 704.992 410.948 707.043 413.644C707.043 413.644 708.028 412.556 709.083 410.681C710.136 408.801 711.259 406.131 711.427 402.869Z" fill="#108C6C"/>
<path d="M724.77 655.756C724.77 671.825 572.81 684.852 385.358 684.852C197.907 684.852 45.9473 671.825 45.9473 655.756C45.9473 639.687 197.907 626.661 385.358 626.661C572.81 626.661 724.77 639.687 724.77 655.756Z" fill="#D9DFFF"/>
<path d="M154.512 362.51L153.306 365.924C153.306 365.924 151.951 365.426 149.468 364.641C147.001 363.848 143.437 362.784 139.121 361.664C130.497 359.387 118.828 356.928 107.029 355.476C95.2335 353.955 83.3429 353.584 74.4507 353.741C70.0106 353.972 66.2964 353.996 63.7184 354.287C61.1388 354.549 59.665 354.698 59.665 354.698L59.3105 351.088C59.3105 351.088 60.8132 350.936 63.4437 350.669C66.0725 350.374 69.8495 350.345 74.371 350.115C83.4192 349.95 95.4998 350.333 107.462 351.873C119.432 353.348 131.251 355.838 140.003 358.148C144.385 359.287 148.005 360.368 150.53 361.177C153.05 361.973 154.512 362.51 154.512 362.51Z" fill="#108C6C"/>
<path d="M42.7494 343.721C46.6485 343.063 50.3848 343.735 53.1492 345.388C55.9341 347.189 57.7488 349.887 58.0778 353.036C58.4068 356.186 57.2366 359.186 55.1946 361.477C53.1696 363.913 50.2932 365.708 46.8893 366.27C45.1696 366.5 43.5363 366.634 41.9556 366.412C40.3784 366.201 38.8706 365.703 37.5036 364.969C34.7765 363.496 32.5886 361.078 31.7542 358.028C30.9181 354.978 31.649 351.852 33.6418 349.232C34.634 347.924 35.9348 346.744 37.4782 345.775C39.0199 344.815 40.7956 343.995 42.7494 343.721Z" fill="#F39E10"/>
<path d="M47.8487 349.584C47.8487 349.584 46.2562 350.182 44.3736 351.276C42.4792 352.298 40.366 354.13 39.25 356.208C41.1326 357.582 43.6342 358.14 45.7168 358.642C47.7843 359.074 49.3819 359.134 49.3819 359.134C47.8521 362.302 47.5044 365.423 47.5095 367.757C47.518 370.092 47.8742 371.641 47.8742 371.641C51.2645 370.164 53.8271 368.184 55.8165 366.082C57.8348 364.115 59.2475 361.959 60.2329 359.959C62.2104 355.961 62.4106 352.596 62.4106 352.596C62.4106 352.596 61.7288 349.324 58.8473 345.817C57.4023 344.063 55.3925 342.256 52.606 340.776C49.828 339.442 46.2596 338.511 41.7635 338.352C41.7635 338.352 41.9738 339.925 42.8591 342.112C43.7393 344.301 45.2912 347.103 47.8487 349.584Z" fill="#108C6C"/>
<path d="M383.964 141.081C383.964 141.081 356.472 127.18 351.66 96.6303C346.848 66.081 394.574 54.4931 414.356 105.057C414.356 105.057 410.769 50.2804 443.417 44.3105C476.065 38.3407 470.792 104.99 460.884 115.557C460.884 115.557 474.598 105.409 488.047 113.835C501.495 122.263 497.153 155.27 453.79 164.047C410.426 172.826 383.964 141.081 383.964 141.081Z" fill="#167949"/>
<path d="M413.923 149.556C406.303 132.348 392.458 113.933 392.319 113.749L393.074 113.155C393.215 113.34 407.125 131.841 414.79 149.156L413.923 149.556Z" fill="white"/>
<path d="M437.56 146.758L436.622 146.591L447.968 79.218L448.906 79.3843L437.56 146.758Z" fill="white"/>
<path d="M227.074 201.408C227.074 201.408 215.745 176.025 192.387 176.034C169.028 176.042 165.643 201.244 179.306 219.954C179.306 219.954 156.882 204.049 124.646 205.321C92.4117 206.592 68.5846 230.937 75.5924 258.144C82.6003 285.352 118.572 291.557 128.85 288.695C128.85 288.695 93.3462 314.472 107.362 337.861C121.376 361.251 165.29 337.861 165.29 337.861L227.074 201.408Z" fill="#108C6C"/>
<path d="M179.935 267.503C179.537 267.333 139.784 250.587 119.461 248.523L119.649 246.585C140.252 248.677 180.263 265.535 180.664 265.704L179.935 267.503Z" fill="white"/>
<path d="M120.12 267.389L118.992 265.819C126.97 259.842 142.712 253.857 143.378 253.606L144.04 255.432C143.879 255.493 127.88 261.573 120.12 267.389Z" fill="white"/>
<path d="M161.626 259.958C161.403 259.328 156.15 244.507 155.687 238.478L157.587 238.327C158.029 244.093 163.363 259.141 163.417 259.292L161.626 259.958Z" fill="white"/>
<path d="M127.699 326.863L126.739 325.182C146.528 313.383 162.231 310.993 162.387 310.97L162.657 312.897C162.504 312.92 147.142 315.271 127.699 326.863Z" fill="white"/>
<path d="M212.831 227.951C212.205 227.258 197.431 210.79 193.4 197.397L195.223 196.825C199.126 209.792 214.081 226.464 214.232 226.631L212.831 227.951Z" fill="white"/>
<path d="M113.533 381.607L111.968 369.737C105.891 368.869 99.3394 368.347 92.262 368.326C73.0226 368.261 54.1376 371.827 38.4377 378.344L37.7407 386.756L33.7805 380.415C31.1585 381.647 28.6399 382.973 26.2316 384.403L28.7281 399.95L19.6342 388.742C12.4889 394.005 6.982 400.032 3.58491 406.828C0.22005 413.583 -0.856904 420.897 0.698328 428.645C2.03986 435.336 5.03839 440.989 9.20377 445.662C11.2949 448.002 13.6524 450.083 16.2998 451.949C18.971 453.83 21.9034 455.471 25.0529 456.878C37.683 462.53 54.1427 464.603 71.9032 463.276L76.1127 449.629L81.9707 462.186C85.9851 461.593 90.0606 460.853 94.1191 459.929L92.9896 451.759L99.6362 458.588C101.205 458.179 102.774 457.746 104.339 457.285C132.457 448.979 150.211 435.352 160.918 423.712C171.626 412.084 175.296 402.478 175.296 402.478C175.296 402.478 159.144 379.171 119.423 371.033L113.533 381.607Z" fill="#136A54"/>
<path d="M31.9304 428.748L31.5776 426.835L162.346 401.659L162.699 403.572L31.9304 428.748Z" fill="white"/>
<path d="M75.7293 420.286C66.4098 419.735 47.942 411.502 47.1602 411.152L47.9251 409.369C48.115 409.452 66.8609 417.81 75.8378 418.344L75.7293 420.286Z" fill="white"/>
<path d="M83.2266 435.261L81.3779 434.79C83.3707 426.647 93.6807 415.773 94.1183 415.316L95.4836 416.673C95.3801 416.783 85.0956 427.631 83.2266 435.261Z" fill="white"/>
<path d="M127.005 410.361C116.312 407.859 105.137 396.292 104.667 395.801L106.029 394.439C106.139 394.555 117.287 406.088 127.431 408.464L127.005 410.361Z" fill="white"/>
<path d="M638.165 496.671L635.66 508.072C640.933 510.973 646.752 513.718 653.222 516.187C670.801 522.909 689.265 526.183 705.788 525.656L709.217 518.203L710.735 525.373C713.545 525.153 716.288 524.812 718.966 524.339L721.839 509.25L726.442 522.653C734.725 520.311 741.76 516.705 747.121 511.663C752.441 506.646 755.852 500.326 756.997 492.701C757.989 486.114 757.121 479.904 754.858 474.185C753.723 471.321 752.255 468.602 750.452 465.976C748.632 463.332 746.492 460.816 744.078 458.438C734.396 448.893 720.026 441.3 703.335 436.365L694.959 447.393L693.761 433.876C689.893 433.027 685.919 432.296 681.9 431.732L680.224 439.6L676.408 431.051C674.834 430.883 673.257 430.736 671.673 430.616C643.192 428.48 622.429 434.803 608.775 441.745C595.12 448.677 588.577 456.194 588.577 456.194C588.577 456.194 595.627 483.111 629.269 504.306L638.165 496.671Z" fill="#136A54"/>
<path d="M728.142 483.69L600.148 461.451L600.47 459.531L728.461 481.77L728.142 483.69Z" fill="white"/>
<path d="M707.38 494.002C707.237 493.86 692.857 479.727 684.826 476.134L685.588 474.349C693.934 478.08 708.105 492.013 708.704 492.602L707.38 494.002Z" fill="white"/>
<path d="M667.116 472.575L666.298 470.816C666.429 470.752 679.429 464.39 683.664 458.06L685.239 459.16C680.713 465.924 667.669 472.306 667.116 472.575Z" fill="white"/>
<path d="M649.267 487.541C649.202 487.396 642.832 472.992 634.342 467.308L635.387 465.681C644.348 471.678 650.739 486.134 651.005 486.746L649.267 487.541Z" fill="white"/>
<path d="M524.659 652.852L520.912 651.378L546.045 584.666L549.792 586.141L524.659 652.852Z" fill="#CDCDCD"/>
<path d="M571.178 652.852L546.046 586.141L549.793 584.666L574.926 651.378L571.178 652.852Z" fill="#CDCDCD"/>
<path d="M559.158 615.266H537.439V611.166H559.158V615.266Z" fill="#CDCDCD"/>
<path d="M563.921 629.932H532.446V625.83H563.921V629.932Z" fill="#CDCDCD"/>
<path d="M108.846 652.199C108.846 652.199 109.458 654.648 111.11 656.961C112.764 659.275 115.272 662.151 115.579 663.402C115.885 664.654 114.416 665.778 113.008 665.279C111.601 664.778 101.442 660.089 99.0552 658.212C96.6673 656.337 95.994 655.648 96.055 655.209C96.1161 654.773 99.0247 649.546 99.8659 648.252C100.707 646.957 107.072 646.999 108.846 652.199Z" fill="#753519"/>
<path d="M135.298 638.331C135.298 638.331 136.981 640.183 139.515 641.408C142.048 642.634 145.6 643.935 146.453 644.885C147.308 645.832 146.543 647.539 145.072 647.787C143.602 648.037 132.485 648.877 129.51 648.395C126.535 647.914 125.623 647.638 125.472 647.224C125.321 646.81 125.431 640.798 125.563 639.249C125.696 637.702 131.306 634.629 135.298 638.331Z" fill="#753519"/>
<path d="M135.763 547.115C135.763 547.115 140.669 580.674 140.874 589.462C141.078 598.247 135.763 638.903 135.763 638.903H125.398C125.398 638.903 126.409 619.091 126.409 615.991C126.409 612.889 125.398 585.843 125.398 585.843L126.409 548.193C126.409 548.193 132.469 544.392 135.763 547.115Z" fill="#0F1B35"/>
<path d="M111.782 548.293C111.782 548.293 108.537 556.902 109.55 574.645C110.561 592.388 111.394 596.524 111.394 596.524C111.394 596.524 99.7708 642.692 98.2529 648.205C98.2529 648.205 103.65 652.166 109.55 652.513C109.55 652.513 121.858 621.502 126.242 610.478C130.624 599.451 131.886 591.7 131.93 582.053C131.974 572.406 132.985 546.392 132.985 546.392L111.782 548.293Z" fill="#0F1B35"/>
<path d="M127.674 608.069L126.761 607.785C130.018 596.925 131.632 584.651 131.697 570.259L132.65 570.262C132.584 584.753 130.957 597.121 127.674 608.069Z" fill="white"/>
<path d="M143.878 542.28C143.878 542.28 122.514 538.509 114.775 534.13C107.038 529.753 107.989 525.859 109.061 523.062C110.133 520.263 113.465 514.302 113.465 514.302L121.036 519.839L120.845 521.563L119.552 524.577C119.552 524.577 122.024 526.178 125.751 528.292C129.481 530.406 144.658 537.52 144.658 537.52C144.658 537.52 148.347 540.629 143.878 542.28Z" fill="#F39E10"/>
<path d="M143.305 542.094C145.057 544.024 147.326 545.043 147.326 545.043C147.493 546.518 148.325 547.142 148.793 547.086C149.262 547.033 149.27 544.816 149.27 544.816C149.686 545.837 151.324 546.859 151.546 546.236C151.768 545.61 151.546 544.589 151.546 544.589C151.546 544.589 152.213 545.497 152.711 545.497C153.212 545.497 153.824 545.043 153.6 543.908C153.378 542.775 152.711 541.071 152.046 540.165C151.38 539.257 150.991 538.349 149.548 538.009C148.105 537.668 147.605 537.895 145.939 537.725C144.274 537.555 141.775 537.725 141.775 537.725L143.305 542.094Z" fill="#F39E10"/>
<path d="M127.554 472.918C127.554 472.918 124.709 466.597 116.682 468.988C108.655 471.379 111.163 479.07 105.979 482.317C100.794 485.563 93.1027 487.272 91.0946 496.33C89.0883 505.386 95.2753 506.069 91.0946 511.538C86.914 517.005 85.408 520.935 89.9244 526.576C94.4392 532.215 102.392 530.504 107.363 527.77C112.334 525.037 134.076 514.614 134.076 514.614C134.076 514.614 139.119 509.155 134.076 503.336C129.034 497.515 130.396 488.639 130.396 488.639C130.396 488.639 132.236 488.298 132.904 483.172C133.574 478.044 131.975 471.367 127.554 472.918Z" fill="#753519"/>
<path d="M521.7 43.5977L524.498 41.5251C524.498 41.5251 534.108 53.5185 549.832 61.6164C565.554 69.716 570.947 72.8057 572.377 73.0709C573.806 73.3377 580.561 74.5317 582.9 77.5851C585.239 80.6385 585.499 82.3662 584.981 82.4979C584.461 82.6296 581.862 78.7808 581.862 78.7808C581.862 78.7808 584.462 82.2067 584.201 83.4856C583.94 84.7628 582.481 82.5793 581.959 82.0473C581.438 81.5136 580.134 79.9696 580.134 79.9696C580.134 79.9696 582.899 83.645 583.004 84.7628C583.105 85.8822 581.282 84.4439 579.875 82.8462C578.467 81.2484 576.903 80.5016 576.539 80.9816C576.172 81.4616 576.016 83.4319 575.443 83.0593C574.87 82.6867 574.765 81.1947 574.505 80.129C573.579 80.1082 569.341 78.5486 561.712 76.9907C554.084 75.4311 523.571 61.7481 516.619 52.9138C509.669 44.0812 521.7 43.5977 521.7 43.5977Z" fill="#F39E10"/>
<path d="M714.987 363.503C717.668 360.289 719.308 356.745 719.815 353.005C720.171 349.413 719.345 345.663 717.376 342.015C717.376 342.015 718.27 342.986 719.608 344.441C720.928 345.916 722.775 347.802 724.474 349.82L730.949 358.173C728.149 361.498 726.591 364.999 725.741 368.803C724.959 372.563 725.202 376.374 726.591 380.096C729.616 377.264 731.614 373.996 732.493 370.406C732.934 368.612 733.096 366.74 732.978 364.82C732.856 362.902 732.504 360.897 731.636 359.059C731.636 359.059 732.087 359.639 732.764 360.511C733.403 361.412 734.177 362.672 734.987 363.9C736.59 366.378 738.195 368.855 738.195 368.855C738.232 370.998 738.524 372.998 739.065 374.854C739.514 376.767 740.138 378.585 741.054 380.229C742.865 383.536 745.684 386.262 749.488 388.393C749.892 384.147 749.096 380.103 747.294 376.627C746.383 374.895 745.262 373.284 743.839 371.906C742.323 370.582 740.584 369.451 738.652 368.551C738.652 368.551 737.849 367.311 736.646 365.453C736.044 364.522 735.34 363.438 734.589 362.275C734.212 361.694 733.822 361.093 733.429 360.485C732.984 359.909 732.537 359.325 732.086 358.741C728.471 354.08 724.859 349.418 724.859 349.418C731.216 354.368 739.246 355.234 746.831 352.028C743.449 348.729 739.465 346.868 735.635 346.264C731.748 345.693 727.915 346.427 724.138 348.557C724.138 348.557 720.556 344.662 716.976 340.764C715.251 338.747 713.212 337.056 711.779 335.689C710.324 334.346 709.354 333.45 709.354 333.45C711.148 334.411 712.99 335.106 714.866 335.548C716.757 335.971 718.646 336.172 720.458 336.212C724.138 336.224 727.907 335.198 731.494 333.046C729.594 331.625 727.652 330.53 725.709 329.774C723.792 328.991 721.662 328.757 719.701 328.734C715.723 328.743 711.946 330.09 708.53 332.689C708.53 332.689 707.56 331.793 706.105 330.45C704.553 329.223 702.484 327.587 700.414 325.951C698.344 324.317 696.295 322.654 694.609 321.616L691.877 319.781C693.8 320.455 695.73 320.86 697.658 321.009C699.538 321.226 701.379 321.234 703.225 320.952C706.905 320.399 710.523 318.819 713.796 316.167C709.549 313.982 705.438 312.97 701.491 313.572C697.531 314.178 693.97 316.077 690.951 319.157C690.951 319.157 689.859 318.424 688.219 317.322C686.572 316.233 684.243 315.001 681.977 313.669C680.836 313.015 679.694 312.36 678.626 311.749C677.518 311.208 676.487 310.702 675.6 310.269C673.831 309.404 672.651 308.827 672.651 308.827C676.628 309.624 680.519 309.312 684.048 308.304C687.61 307.215 690.969 305.118 693.834 302.015C691.585 301.225 689.387 300.758 687.287 300.618C686.238 300.549 685.215 300.554 684.214 300.653C683.195 300.79 682.206 301.005 681.25 301.294C677.429 302.455 674.188 304.846 671.65 308.338C671.65 308.338 671.148 308.094 670.271 307.666C669.371 307.292 668.084 306.758 666.539 306.117C663.479 304.758 659.275 303.271 655.046 301.871C650.786 300.571 646.478 299.429 643.197 298.802C639.93 298.111 637.696 297.891 637.696 297.891L637.646 298.447C637.646 298.447 639.192 298.613 641.501 299.039C643.812 299.447 646.865 300.159 649.897 300.946C652.908 301.824 655.93 302.668 658.133 303.505C660.353 304.283 661.834 304.801 661.834 304.801C661.256 309.097 661.681 313.194 662.989 316.675C664.33 320.091 666.41 323.26 669.405 325.7C670.55 321.668 670.6 317.805 669.522 314.249C668.484 310.617 666.133 307.721 662.87 305.196C662.87 305.196 664.076 305.697 665.889 306.448C667.694 307.214 670.143 308.141 672.466 309.354C674.808 310.518 677.186 311.619 678.913 312.549C680.617 313.528 681.753 314.18 681.753 314.18C680.532 318.375 680.397 322.409 681.216 326.01C681.998 329.689 683.612 333.141 686.277 335.942C687.979 332.131 688.57 328.332 687.996 324.678C687.71 322.853 687.136 321.065 686.283 319.344C685.391 317.691 684.179 316.173 682.718 314.733C682.718 314.733 683.855 315.384 685.559 316.363C687.306 317.271 689.424 318.836 691.617 320.273C696.063 323.071 700.121 326.425 700.121 326.425C698.317 330.391 697.614 334.365 697.92 338.051C698.237 341.735 699.285 345.486 701.529 348.668C703.749 345.136 704.872 341.445 704.829 337.725C704.8 335.876 704.52 333.976 703.888 332.186C703.215 330.448 702.244 328.745 700.998 327.112C700.998 327.112 702.029 327.925 703.579 329.145C705.179 330.303 707.102 332.103 709.027 333.899C710.962 335.685 712.897 337.47 714.345 338.81C715.095 339.454 715.599 340.116 716.007 340.525C716.396 340.95 716.62 341.192 716.62 341.192C714.272 344.873 713.007 348.736 712.773 352.475C712.66 354.347 712.805 356.191 713.221 357.984C713.616 359.798 714.122 361.719 714.987 363.503Z" fill="#108C6C"/>
<path d="M119.301 120.132C115.797 123.648 113.514 127.669 112.536 132.01C111.51 136.375 111.947 140.955 113.747 145.533C113.747 145.533 112.833 144.249 111.459 142.326C110.055 140.423 108.297 137.804 106.583 135.157C104.848 132.522 103.113 129.888 101.812 127.913C101.147 126.934 100.643 126.086 100.292 125.492C99.9379 124.899 99.7361 124.562 99.7361 124.562C103.377 120.902 105.77 116.717 106.883 112.332C107.439 110.137 107.673 107.891 107.572 105.619C107.544 103.32 107.248 100.98 106.581 98.6425C102.78 101.831 100.147 105.63 98.7863 109.884C97.516 114.091 97.6364 118.675 99.0492 123.413C99.0492 123.413 97.243 120.394 95.4367 117.377C94.5446 115.861 93.6034 114.374 92.9775 113.213C92.3585 112.047 91.9464 111.27 91.9464 111.27C92.2822 106.094 91.2425 101.557 89.2158 97.5491C87.301 93.4889 84.1583 90.056 79.7979 87.2574C79.0211 92.2932 79.6843 97.1782 81.5821 101.448C83.5851 105.656 87.0415 109.106 91.3799 111.596C91.3799 111.596 91.5868 111.986 91.9498 112.665C92.3042 113.35 92.8215 114.32 93.5169 115.441C94.872 117.706 96.6799 120.725 98.4861 123.744C100.241 126.797 102.212 129.707 103.661 131.909C105.111 134.11 106.077 135.578 106.077 135.578C102.494 132.278 98.3064 130.271 94.0257 129.334C89.7382 128.405 85.1251 128.705 80.4509 130.356C82.2758 132.398 84.2363 134.087 86.2902 135.404C88.3576 136.707 90.6065 137.562 92.8554 138.09C97.382 139.127 102.11 138.662 106.813 136.697C106.813 136.697 107.685 138.014 108.993 139.99C110.367 141.918 112.2 144.49 114.032 147.06C117.631 152.252 121.525 157.215 121.525 157.215C119.61 155.702 117.592 154.503 115.502 153.612C113.458 152.685 111.332 152.07 109.151 151.772C104.79 151.177 100.206 151.843 95.6657 153.855C99.5953 157.558 103.915 159.883 108.469 160.608C113.046 161.313 117.748 160.537 122.335 158.279C122.335 158.279 123.292 159.533 124.725 161.415C126.133 163.318 128.124 165.763 130.106 168.213C132.087 170.665 134.068 173.117 135.554 174.956C137.082 176.758 138.101 177.959 138.101 177.959C130.179 172.322 121.019 171.502 112.137 176.077C116.24 179.514 120.712 181.513 125.254 182.019C129.811 182.513 134.502 181.456 138.966 178.978C138.966 178.978 139.986 180.179 141.515 181.98C143.032 183.794 145.085 186.182 147.192 188.521C149.283 190.876 151.374 193.23 152.943 194.995C154.542 196.732 155.609 197.889 155.609 197.889C147.462 192.595 138.244 192.256 129.623 197.229C138.066 203.734 147.78 204.273 156.515 198.87C156.515 198.87 158.331 200.832 161.055 203.778C163.833 206.668 167.485 210.574 171.26 214.357C174.996 218.18 178.815 221.914 181.707 224.689C184.59 227.47 186.565 229.274 186.565 229.274L186.997 228.778C186.997 228.778 181.463 223.661 176.129 218.32C173.436 215.678 170.819 212.953 168.823 210.947C166.862 208.904 165.554 207.542 165.554 207.542C168.356 203.194 169.793 198.589 169.888 194.016C170.025 189.4 168.801 184.83 166.255 180.481C160.455 188.582 159.802 198.004 164.635 206.578C164.635 206.578 160.28 202.047 156.045 197.394C153.898 195.096 151.802 192.751 150.246 190.977C148.681 189.213 147.638 188.036 147.638 188.036C153.542 179.605 154.19 169.913 149.488 161.055C143.313 168.896 142.309 178.233 146.753 187.038C146.753 187.038 145.715 185.856 144.158 184.082C142.631 182.283 140.594 179.883 138.558 177.484C136.5 175.103 134.521 172.655 133.046 170.811C131.562 168.974 130.573 167.749 130.573 167.749C133.744 163.666 135.534 159.242 136.064 154.69C136.622 150.117 135.868 145.462 133.727 140.95C130.464 144.696 128.456 148.862 127.764 153.248C127.087 157.617 127.645 162.275 129.735 166.709C129.735 166.709 128.746 165.484 127.262 163.647C125.827 161.77 123.916 159.266 122.003 156.764C118.119 151.803 114.522 146.621 114.522 146.621C117.9 142.726 119.976 138.387 120.733 133.914C121.448 129.455 121.129 124.721 119.301 120.132Z" fill="#108C6C"/>
<path d="M436.61 59.7152C435.043 58.769 434.2 57.7293 434.2 57.7293C434.2 57.7293 433.657 56.5388 432.706 55.707C431.756 54.8735 430.343 54.669 430.343 54.669C430.343 54.669 431.252 57.8333 432.27 58.646C432.772 59.0463 433.245 58.8297 433.598 58.5091C434.295 60.2715 435.409 61.6353 435.409 61.6353C435.409 61.6353 438.179 60.6614 436.61 59.7152Z" fill="#F39E10"/>
<path d="M628.57 388.341C628.57 525.145 520.031 636.046 386.14 636.046C252.248 636.046 143.709 525.145 143.709 388.341C143.709 251.537 252.248 140.635 386.14 140.635C520.031 140.635 628.57 251.537 628.57 388.341Z" fill="#1B6652"/>
<path d="M434.908 561.768C315.223 561.768 218.2 462.634 218.2 340.345C218.2 257.93 262.269 186.037 327.641 147.913C222.015 174.655 143.708 272.147 143.708 388.341C143.708 525.145 252.249 636.046 386.14 636.046C496.724 636.046 590.008 560.391 619.135 456.975C580.91 519.875 512.702 561.768 434.908 561.768Z" fill="#1A614F"/>
<path d="M468.316 60.2211C468.316 60.2211 462.529 65.5445 460.591 65.5445C458.654 65.5445 439.372 59.644 435.734 58.8625C432.098 58.0792 432.288 59.2541 430.852 60.2315C429.415 61.2105 433.93 64.1721 433.93 64.1721C433.93 64.1721 451.148 73.1433 460.05 75.2938C468.952 77.4461 476.069 70.0743 476.069 70.0743C476.069 70.0743 478.401 60.5053 468.316 60.2211Z" fill="#F39E10"/>
<path d="M399.063 65.6218C399.063 65.6218 412.601 67.1347 421.949 64.7051C421.949 64.7051 427.743 74.6398 429.932 78.3084L428.981 83.0462C428.981 83.0462 421.052 93.2859 407.141 93.8976C407.141 93.8976 396.969 79.5301 399.063 65.6218Z" fill="#834023"/>
<path d="M420.305 82.3967C417.53 82.3967 415.459 81.2634 415.334 81.1958L416.295 79.3936C416.329 79.4127 419.801 81.2807 423.374 79.709C426.531 78.3209 428.897 74.7252 430.406 69.0239C432.122 62.5307 431.264 57.3459 427.925 54.0309C424.029 50.1648 417.828 49.8043 413.414 51.1664C404.369 53.9529 405.288 66.934 405.297 67.064L403.299 67.2321C403.287 67.0848 402.23 52.4695 412.834 49.203C418.821 47.3609 425.442 48.7074 429.321 52.5596C432.038 55.256 434.765 60.3941 432.343 69.5577C430.662 75.9122 427.901 79.9655 424.141 81.6048C422.799 82.1888 421.488 82.3967 420.305 82.3967Z" fill="#753519"/>
<path d="M430.815 57.323C430.815 57.323 429.077 56.6367 428.381 57.8498C427.661 59.1061 430.566 60.0939 433.022 59.8478C435.477 59.6 433.274 57.7683 430.815 57.323Z" fill="white"/>
<path d="M430.771 59.0974C430.771 59.0974 429.053 58.5428 427.881 59.5722C426.707 60.6015 430.478 62.0554 433.354 61.792C436.232 61.5269 433.651 59.5704 430.771 59.0974Z" fill="white"/>
<path d="M485.601 205.18C485.601 205.18 484.916 207.921 483.065 210.51C481.217 213.099 478.408 216.319 478.067 217.717C477.723 219.118 479.366 220.377 480.944 219.818C482.519 219.258 493.889 214.009 496.559 211.909C499.23 209.81 499.983 209.041 499.915 208.55C499.845 208.06 496.591 202.211 495.651 200.761C494.71 199.312 487.587 199.361 485.601 205.18Z" fill="#753519"/>
<path d="M430.438 60.7737C430.438 60.7737 428.923 60.2399 427.88 61.3421C426.835 62.4425 430.178 63.9414 432.737 63.659C435.298 63.3748 434.086 60.9608 430.438 60.7737Z" fill="white"/>
<path d="M400.513 80.0766C400.513 80.0766 363.221 71.4728 361.844 71.4641C360.468 71.4537 355.825 70.5768 353.589 73.7394C353.589 73.7394 353.932 75.6716 355.996 76.7269C358.06 77.7805 360.813 75.6889 360.813 75.6889L405.869 91.9141C405.869 91.9141 408.736 83.7764 400.513 80.0766Z" fill="#753519"/>
<path d="M354.216 74.1535C354.45 74.7306 354.997 75.6715 356.21 76.2902C356.529 76.4531 356.895 76.5362 357.297 76.5362C358.32 76.5362 359.365 76.0233 359.979 75.6577C358.193 74.4065 356.266 74.1275 354.909 74.1275C354.64 74.1275 354.406 74.1396 354.216 74.1535ZM357.297 77.5101C356.744 77.5101 356.236 77.394 355.784 77.1618C353.532 76.0112 353.135 73.9144 353.12 73.826L353.035 73.3494L353.5 73.2611C353.524 73.2559 354.066 73.1536 354.909 73.1536C356.556 73.1536 358.969 73.5279 361.113 75.3111L361.588 75.7062L361.098 76.0788C361.02 76.1377 359.193 77.5101 357.297 77.5101Z" fill="white"/>
<path d="M596.283 585.403H529.091L540.429 572.056H607.621L596.283 585.403Z" fill="#D9D9D9"/>
<g opacity="0.789993">
<path d="M353.588 73.739C353.588 73.739 327.131 100.743 330.655 133.016H362.677C362.677 133.016 354.77 93.1094 360.812 75.6885C360.812 75.6885 358.112 73.0736 353.588 73.739Z" fill="#AFEBEB"/>
</g>
<path d="M483.019 95.8438C483.019 95.8438 457.145 116.75 454.185 123.977C451.224 131.204 465.864 146.666 465.864 146.666C465.864 146.666 479.679 196.917 484.45 205.322C484.45 205.322 492.345 203.136 496.127 200.783C496.127 200.783 491.524 155.405 489.386 149.354C489.386 149.354 522.948 117.282 528.702 107.771C534.455 98.2629 487.013 92.5443 483.019 95.8438Z" fill="#0F1B35"/>
<path d="M500.166 178.53C500.166 178.53 500.758 181.294 500.241 184.455C499.725 187.617 498.629 191.781 498.938 193.188C499.247 194.597 501.268 194.97 502.432 193.746C503.594 192.525 511.45 182.621 512.917 179.519C514.38 176.419 514.716 175.386 514.44 174.979C514.163 174.574 508.685 170.837 507.208 169.974C505.731 169.11 499.386 172.418 500.166 178.53Z" fill="#753519"/>
<path d="M465.388 146.682C465.055 135.501 483.342 117.494 484.12 116.734L484.78 117.439C484.592 117.621 466.02 135.903 466.341 146.651L465.388 146.682Z" fill="white"/>
<path d="M467.849 149.158L499.736 178.833C499.736 178.833 504.303 173.921 506.706 170.031C506.706 170.031 495.09 146.907 490.282 142.201C485.476 137.494 467.849 149.158 467.849 149.158Z" fill="#0F1B35"/>
<path d="M564.895 567.502C564.895 567.502 563.138 569.689 560.389 571.233C557.642 572.779 553.763 574.479 552.871 575.598C551.982 576.717 552.947 578.572 554.608 578.745C556.266 578.92 568.742 579.088 572.032 578.341C575.321 577.596 576.323 577.223 576.464 576.75C576.605 576.277 576.084 569.569 575.831 567.85C575.58 566.129 569.107 563.09 564.895 567.502Z" fill="#753519"/>
<path d="M347.088 138.845L345.154 138.902C345.154 138.902 345.136 138.131 344.964 136.705C344.815 135.287 344.491 133.26 344.001 130.847C342.992 126.028 341.058 119.708 338.391 113.702C335.718 107.704 332.505 101.948 329.668 97.9326C328.359 95.8462 327.053 94.264 326.21 93.1065C325.348 91.961 324.856 91.306 324.856 91.306L326.362 90.0652C326.362 90.0652 326.865 90.7307 327.741 91.8969C328.601 93.0753 329.927 94.6869 331.262 96.8114C334.152 100.901 337.429 106.77 340.156 112.893C342.88 119.024 344.857 125.484 345.894 130.433C346.397 132.913 346.731 134.999 346.886 136.481C347.064 137.947 347.088 138.845 347.088 138.845Z" fill="#4CA28C"/>
<path d="M324.8 80.1857C327.648 83.4644 327.774 87.911 325.14 90.0615C322.496 92.219 318.352 91.6038 315.854 88.7116C313.183 85.9667 312.891 81.6795 315.188 79.1477C317.484 76.6159 321.793 77.0752 324.8 80.1857Z" fill="#FFD302"/>
<path d="M323.635 84.2903C323.635 84.2903 322.918 83.7098 321.876 83.1484C320.798 82.6285 319.404 82.1277 318.142 82.1953C318.06 83.4811 318.498 84.8674 318.952 85.9297C319.366 87.0301 319.797 87.8151 319.797 87.8151C316.086 88.2136 313.724 90.7419 313.724 90.7419C317.055 93.1437 320.33 93.3794 322.677 93.1385C325.031 92.8907 326.586 91.9827 326.586 91.9827C326.586 91.9827 327.845 90.683 328.579 88.2795C329.318 85.8725 329.335 82.4465 326.93 78.1541C326.93 78.1541 324.391 80.4 323.635 84.2903Z" fill="#4CA28C"/>
<path d="M600.97 540.958C600.97 540.958 601.149 543.781 600.177 546.829C599.205 549.876 597.511 553.827 597.611 555.267C597.709 556.705 599.654 557.383 600.982 556.352C602.31 555.319 611.528 546.729 613.431 543.885C615.334 541.045 615.816 540.075 615.602 539.629C615.388 539.187 610.521 534.656 609.186 533.574C607.851 532.495 601.093 534.796 600.97 540.958Z" fill="#753519"/>
<path d="M294.354 103.615C294.354 103.615 295.105 122.981 312.781 136.898C330.456 150.814 347.079 145.128 347.079 145.128C347.079 145.128 348.224 127.253 330.55 113.338C312.874 99.421 294.354 103.615 294.354 103.615Z" fill="#136A54"/>
<path d="M346.788 145.514L301.466 109.832L302.049 109.059L347.371 144.741L346.788 145.514Z" fill="white"/>
<path d="M307.347 123.105L307.316 122.131L318.032 121.782L318.062 122.756L307.347 123.105Z" fill="white"/>
<path d="M314.304 119.797L311.902 109.121L312.832 108.902L315.233 119.579L314.304 119.797Z" fill="white"/>
<path d="M319.009 132.286L318.979 131.312L329.694 130.964L329.723 131.938L319.009 132.286Z" fill="white"/>
<path d="M325.965 128.979L323.563 118.302L324.492 118.084L326.894 128.76L325.965 128.979Z" fill="white"/>
<path d="M330.67 141.467L330.639 140.493L341.354 140.145L341.385 141.119L330.67 141.467Z" fill="white"/>
<path d="M337.626 138.158L335.224 127.484L336.154 127.265L338.553 137.94L337.626 138.158Z" fill="white"/>
<path d="M260.427 136.803L270.407 120.432C267.049 106.467 261.627 90.6575 252.858 74.7703C245.81 62.1201 237.611 51.5494 228.768 42.6873L215.29 52.3656C215.29 52.3656 217.062 48.4423 218.959 44.5519C220.843 40.6876 222.727 36.8232 222.727 36.8232C212.18 27.2541 201.497 19.8841 191.96 14.3648C187.091 11.6268 182.824 9.32726 178.857 7.5493C174.922 5.77135 171.457 4.50977 168.725 3.8374C166.4 7.09006 163.784 12.3616 161.508 19.4353C160.328 23.0085 159.415 26.8885 158.625 31.1809C157.86 35.4473 157.167 40.2076 156.885 45.1117C156.885 45.1117 161.1 46.8498 165.312 48.5896C169.495 50.2619 173.679 51.9324 173.679 51.9324C173.679 51.9324 169.43 52.1005 165.18 52.2668C160.911 52.3916 156.642 52.5129 156.642 52.5129C156.463 73.2921 161.344 97.9548 174.718 120.976C177.13 125.184 179.691 129.13 182.349 132.831C184.994 136.543 187.693 140.057 190.484 143.3C190.484 143.3 196.431 142.925 202.375 142.551C208.301 142.133 214.227 141.716 214.227 141.716L199.293 152.851C211.427 164.975 223.565 173.133 232.625 178.271C237.153 180.845 240.923 182.65 243.569 183.837C246.196 185 247.746 185.6 247.746 185.6L261.722 175.707L275.697 165.813C275.697 165.813 275.781 164.916 275.786 163.136C275.797 161.372 275.764 158.799 275.593 155.53C275.252 149.016 274.384 139.79 272.286 129.015L260.427 136.803Z" fill="#E0EED0"/>
<path d="M266.054 172.639C260.785 164.761 247.804 145.254 231.917 120.019C215.988 94.7866 197.105 63.8508 180.299 32.5893C192.622 66.01 209.421 98.6874 224.249 124.809C239.066 150.997 251.976 170.695 257.388 178.775L261.721 175.706L266.054 172.639Z" fill="white"/>
<path d="M280.126 153.311L290.563 146.901C292.641 137.859 294.065 127.122 293.56 115.321C293.129 105.909 291.377 97.3195 288.813 89.5595L278.289 91.1625C278.289 91.1625 280.457 89.4452 282.626 87.7261C284.798 86.0383 286.971 84.3504 286.971 84.3504C283.591 75.6634 279.456 68.2033 275.448 62.2092C271.446 56.2376 267.667 51.7442 264.818 49.4117C260.352 51.8637 252.873 58.8335 246.598 69.8651C246.598 69.8651 248.551 72.0832 250.505 74.3031C252.461 76.4813 254.414 78.6596 254.414 78.6596C254.414 78.6596 251.909 77.5176 249.405 76.3774C246.901 75.2094 244.396 74.0414 244.396 74.0414C238.479 85.9049 234.305 101.439 235.423 118.6C235.804 124.848 236.795 130.687 238.092 136.084L252.183 142.271L240.409 144.188C243.896 154.762 248.514 163.081 252.227 168.748C254.082 171.581 255.726 173.753 256.899 175.226C258.071 176.685 258.785 177.492 258.785 177.492L269.656 176.033L280.528 174.576C280.528 174.576 281.747 172.501 283.435 168.637C285.119 164.792 287.276 159.233 289.172 152.405L280.126 153.311Z" fill="#E0EED0"/>
<path d="M273.028 175.582C272.275 169.471 270.47 154.369 268.574 135.11C266.656 115.838 264.649 92.4076 263.642 69.4276C261.454 92.3452 261.765 116.121 262.794 135.565C263.803 155.04 265.511 170.225 266.286 176.484L269.656 176.034L273.028 175.582Z" fill="white"/>
<path d="M575.621 249.734C575.621 249.734 591.677 204.149 589.669 159.956C587.663 115.764 600.373 82.582 621.11 85.1606C641.848 87.7392 659.911 167.711 580.972 254.519L575.621 249.734Z" fill="#4CA28C"/>
<path d="M582.554 248.073L580.941 247.036C581.233 246.561 610.085 199.054 611.203 146.646L613.109 146.687C611.982 199.647 582.851 247.594 582.554 248.073Z" fill="white"/>
<path d="M579.24 255.157C579.24 255.157 608.025 239.825 637.551 237.142C667.076 234.458 687.937 222.587 684.311 208.45C680.685 194.313 625.925 189.168 575.57 251.889L579.24 255.157Z" fill="#4CA28C"/>
<path d="M580.732 251.455L579.511 249.962C579.801 249.714 609.015 225.046 644.153 219.367L644.449 221.291C609.844 226.883 581.021 251.209 580.732 251.455Z" fill="white"/>
<path d="M709.504 247.554C700.988 246.66 690.568 245.659 678.96 246.095C667.373 246.588 654.733 248.74 641.526 254.791C628.325 260.802 621.14 271.605 617.072 281.069C613.027 290.511 612.157 298.566 612.157 298.566C612.157 298.566 618.245 303.817 628.011 307.229C637.743 310.646 651.231 312.206 665.197 304.87C679.13 297.512 689.23 287.292 696.261 276.889C703.34 266.53 707.214 255.787 709.504 247.554Z" fill="#136A54"/>
<path d="M612.266 298.847L612.047 298.286C612.047 298.286 617.333 296.128 625.174 292.662C633.018 289.202 643.408 284.426 653.66 279.352C663.921 274.295 674.019 268.903 681.485 264.662C685.233 262.574 688.308 260.741 690.453 259.448C692.603 258.166 693.835 257.433 693.835 257.433L694.137 257.951C694.137 257.951 692.907 258.684 690.751 259.97C688.603 261.264 685.524 263.099 681.769 265.192C674.295 269.436 664.187 274.836 653.919 279.894C643.657 284.974 633.259 289.753 625.41 293.215C617.562 296.685 612.266 298.847 612.266 298.847Z" fill="white"/>
<path d="M668.783 271.863C668.752 271.728 668.484 270.134 668.918 267.292C669.346 264.45 670.516 260.43 673.272 255.441L673.776 255.746C671.087 260.636 669.939 264.589 669.522 267.379C669.307 268.769 669.268 269.858 669.281 270.6C669.293 271.338 669.366 271.751 669.366 271.751L668.783 271.863Z" fill="white"/>
<path d="M654.031 279.597L654.469 279.188C654.469 279.188 654.801 279.554 655.486 280.091C656.172 280.63 657.218 281.354 658.685 282.114C661.619 283.626 666.236 285.307 672.989 285.74L672.938 286.347C666.054 285.909 661.377 284.21 658.4 282.677C655.425 281.136 654.136 279.712 654.031 279.597Z" fill="white"/>
<path d="M626.614 292.449L627.07 292.063C627.07 292.063 627.435 292.498 628.197 293.148C628.955 293.799 630.122 294.681 631.768 295.622C635.062 297.508 640.267 299.624 647.977 300.474L647.902 301.078C640.06 300.211 634.804 298.092 631.468 296.184C628.137 294.279 626.728 292.588 626.614 292.449Z" fill="white"/>
<path d="M638.37 286.917C638.34 286.723 638.048 284.309 638.903 280.131C639.764 275.97 641.779 270.049 646.228 262.832L646.716 263.163C642.334 270.276 640.358 276.168 639.508 280.287C639.084 282.351 638.943 283.978 638.911 285.094C638.881 286.21 638.957 286.834 638.957 286.834L638.37 286.917Z" fill="white"/>
<path d="M679.028 266.498L679.445 266.067C679.445 266.067 680.24 266.855 682.004 267.659C683.77 268.461 686.526 269.309 690.51 269.418L690.488 270.028C686.368 269.902 683.543 269.045 681.724 268.212C679.906 267.378 679.092 266.564 679.028 266.498Z" fill="white"/>
<path d="M684.72 359.767C681.552 345.624 675.216 324.071 655.758 307.974C636.308 291.887 612.157 303.09 612.157 303.09C612.157 303.09 607.822 329.775 628.295 344.867C648.758 359.95 670.7 360.484 684.72 359.767Z" fill="#136A54"/>
<path d="M612.006 303.291L612.307 302.892L672.672 350.038L672.375 350.44L612.006 303.291Z" fill="white"/>
<path d="M653.509 335.301C653.596 335.236 654.681 334.438 656.925 333.783C659.169 333.127 662.571 332.61 667.289 333.106L667.238 333.608C662.625 333.123 659.276 333.641 657.076 334.283C655.975 334.605 655.163 334.957 654.62 335.23C654.081 335.504 653.803 335.709 653.803 335.709L653.509 335.301Z" fill="white"/>
<path d="M642.449 326.84L642.908 327.02C642.908 327.02 642.768 327.414 642.63 328.138C642.495 328.862 642.357 329.933 642.347 331.332C642.327 334.132 642.813 338.248 644.837 343.547L644.381 343.732C642.317 338.331 641.811 334.168 641.833 331.327C641.854 328.485 642.403 326.961 642.449 326.84Z" fill="white"/>
<path d="M622.475 311.241L622.935 311.421C622.935 311.421 622.773 311.871 622.614 312.7C622.456 313.528 622.297 314.753 622.28 316.356C622.248 319.56 622.795 324.274 625.109 330.341L624.649 330.524C622.299 324.353 621.73 319.604 621.761 316.36C621.791 313.117 622.422 311.379 622.475 311.241Z" fill="white"/>
<path d="M631.129 317.821C631.258 317.724 632.877 316.544 636.229 315.575C639.577 314.606 644.658 313.847 651.701 314.591L651.649 315.093C644.712 314.359 639.668 315.13 636.353 316.092C634.697 316.572 633.471 317.1 632.655 317.511C631.841 317.921 631.421 318.226 631.421 318.226L631.129 317.821Z" fill="white"/>
<path d="M661.049 341.368L661.508 341.548C661.508 341.548 661.195 342.44 661.188 344.09C661.181 345.741 661.473 348.167 662.669 351.288L662.212 351.476C660.978 348.251 660.674 345.762 660.686 344.059C660.696 342.357 661.022 341.44 661.049 341.368Z" fill="white"/>
<path d="M120.077 500.281C120.077 500.281 119.392 499.298 115.483 501.085C111.572 502.871 102.517 515.068 99.8403 521.587C99.8403 521.587 105.191 526.527 108.897 528.629C108.897 528.629 112.23 525.793 114.112 524.741C114.112 524.741 114.246 536.621 112.806 543.664C111.366 550.71 109.959 555.02 109.959 555.02C109.959 555.02 122.066 560.802 137.81 557.647C137.81 557.647 138.017 540.722 138.531 534.202C139.045 527.683 142.03 520.429 140.383 514.331C138.736 508.235 131.7 505.954 126.01 499.998L120.077 500.281Z" fill="#FFD302"/>
<path d="M131.351 484.864C131.351 484.864 131.073 479.91 128.304 476.371C125.532 472.833 119.437 474.106 116.942 479.485C115.146 483.36 114.936 486.183 114.956 487.47C114.447 487.054 113.654 486.781 112.56 487.545C110.702 488.838 113.516 493.399 116.347 492.61C117.105 494.22 118.743 495.554 118.743 495.554C118.743 499.235 119.479 500.216 119.479 500.216C122.113 503.472 125.207 506.688 127.284 505.272C129.364 503.857 126.869 501.874 126.177 500.743C125.483 499.611 126.363 499.02 126.363 499.02C132.598 498.171 131.351 484.864 131.351 484.864Z" fill="#F39E10"/>
<path d="M126.942 479.051C126.942 479.051 125.324 485.255 121.708 486.62C121.708 486.62 122.826 485.464 123.032 484.834C123.032 484.834 118.401 489.249 115.83 488.83C115.83 488.83 114.183 488.093 113.667 482.205C113.153 476.318 119.225 472.953 119.225 472.953H126.119L130.954 478.632L131.453 482.626C131.453 482.626 128.383 482.626 126.942 479.051Z" fill="#753519"/>
<path d="M131.929 549.347C131.929 549.347 110.565 545.576 102.826 541.197C95.0889 536.82 96.0404 532.924 97.1122 530.127C98.1841 527.33 101.517 521.369 101.517 521.369L109.088 526.906L108.896 528.63L107.604 531.644C107.604 531.644 110.075 533.243 113.803 535.359C117.532 537.473 132.71 544.587 132.71 544.587C132.71 544.587 136.398 547.695 131.929 549.347Z" fill="#F39E10"/>
<path d="M565.795 652.852L562.046 651.378L587.181 584.666L590.929 586.141L565.795 652.852Z" fill="#CDCDCD"/>
<path d="M612.316 652.852L587.183 586.141L590.931 584.666L616.064 651.378L612.316 652.852Z" fill="#CDCDCD"/>
<path d="M600.294 615.266H578.575V611.166H600.294V615.266Z" fill="#CDCDCD"/>
<path d="M605.058 629.932H573.582V625.83H605.058V629.932Z" fill="#CDCDCD"/>
<path d="M564.083 374.097C564.083 374.097 558.82 379.341 556.978 385.122C555.136 390.903 557.899 395.878 563.031 397.356C563.031 397.356 564.215 403.406 564.083 405.558C564.083 405.558 568.031 406.632 570.136 406.364C572.242 406.095 574.082 405.289 574.082 405.289V396.684C574.082 396.684 578.032 393.053 579.216 389.693C580.4 386.333 581.451 378.131 577.635 374.097C573.819 370.065 566.184 371.72 564.083 374.097Z" fill="#F39E10"/>
<path d="M506.953 347.978C506.953 347.978 506.812 348.583 503.778 349.54C500.746 350.498 498.58 349.612 497.712 352.123C496.845 354.633 498.58 359.502 496.701 360.535C494.823 361.569 494.245 362.308 494.245 362.308C494.245 362.308 499.007 368.506 500.598 371.163C500.598 371.163 502.768 369.392 503.49 366.292C504.213 363.191 509.146 364.682 510.279 363.635C511.414 362.59 512.614 360.979 512.614 360.979C512.614 360.979 510.995 350.181 506.953 347.978Z" fill="#7180F6"/>
<path d="M571.268 379.655C571.268 379.655 565.975 375.88 564.744 372.359C563.514 368.838 564.991 365.589 568.007 365.956C571.021 366.323 572.623 366.826 572.623 366.826C572.623 366.826 575.432 363.178 580.305 367.833C585.177 372.486 584.563 379.026 584.563 379.026C584.563 379.026 590.718 380.786 588.257 386.697C585.793 392.61 580.305 394.53 580.305 394.53C580.305 394.53 579.516 398.361 577.423 398.566C575.332 398.772 574.082 399.278 574.082 399.278L574.469 392.107C574.469 392.107 576.439 392.107 577.545 389.718C578.653 387.328 575.206 387.706 575.206 387.706C575.206 387.706 573.237 384.056 574.099 382.673C574.099 382.673 571.021 381.417 571.268 379.655Z" fill="#753519"/>
<path d="M545.216 393.518C545.216 393.518 535.757 385.921 527.71 375.835C519.662 365.75 514.734 358.534 514.734 358.534C514.734 358.534 514.734 354.339 513.092 350.812C511.45 347.289 511.284 347.96 510.299 346.619C509.313 345.276 509.32 347.707 510.563 350.077L511.808 352.446C511.808 352.446 508.584 347.189 507.397 347.362C506.209 347.535 507.624 349.268 508.245 350.192C508.867 351.117 509.093 352.736 509.093 352.736C509.093 352.736 506.774 349.095 505.982 349.729C505.19 350.367 506.832 352.561 508.133 354.295C509.432 356.028 509.659 358.745 510.451 360.189C510.451 360.189 521.64 389.863 537.592 402.61C553.545 415.359 545.216 393.518 545.216 393.518Z" fill="#F39E10"/>
<path d="M514.441 358.934C514.441 358.934 514.789 357.011 514.925 356.801C515.06 356.588 515.498 354.99 515.825 353.985C516.154 352.978 515.679 352.011 515.133 352.495C514.587 352.978 513.347 354.767 513.385 355.846C513.42 356.924 514.441 358.934 514.441 358.934Z" fill="#F39E10"/>
<path d="M588.838 423.486C588.838 423.486 595.978 432.336 598.709 433.731C601.441 435.128 608.645 428.997 612.365 421.949C616.082 414.905 618.004 409.559 618.004 409.559C618.004 409.559 622.833 405.982 624.199 402.574C624.199 402.574 624.695 401.049 624.199 400.706C623.703 400.364 622.281 402.842 621.528 403.782C621.528 403.782 623.703 399.936 623.368 399.084C623.034 398.229 619.941 402.671 619.941 402.671C619.941 402.671 622.366 398.143 621.528 398.058C620.692 397.971 618.35 402.075 618.35 402.075C618.35 402.075 618.269 399.255 617.431 399.425C616.595 399.595 616.846 402.758 616.846 402.758C616.846 402.758 616.01 406.688 615.509 407.968C615.007 409.251 604.47 421.554 603.133 421.896C603.133 421.896 598.868 415.744 594.938 414.548C591.007 413.351 588.838 423.486 588.838 423.486Z" fill="#F39E10"/>
<path d="M552.303 450.917C552.303 450.917 562.194 558.02 563.922 567.04C563.922 567.04 573.296 568.196 576.489 567.04C576.489 567.04 575.786 501.828 576.489 495.121C577.192 488.415 582.851 454.19 580.814 449.565C578.776 444.94 552.303 450.917 552.303 450.917Z" fill="#0F1B35"/>
<path d="M583.303 449.103C583.303 449.103 586.822 491.945 588.571 498.504C590.319 505.065 609.272 532.781 609.272 532.781L600.956 541.371C600.956 541.371 583.756 523.566 578.776 517.088C573.798 510.614 565.196 483.558 565.196 483.558C565.196 483.558 570.176 442.396 583.303 449.103Z" fill="#0F1B35"/>
<path d="M436.503 207.249C426.854 204.189 419.865 203.229 414.207 199.969C408.553 196.71 402.895 194.299 398.57 194.485C394.243 194.67 385.258 192.26 379.934 194.485C374.611 196.71 368.975 207.913 360.812 209.961C352.649 212.01 332.153 207.589 326.429 203.849C320.705 200.11 319.078 192.629 320.724 188.889C322.369 185.15 323.033 178.476 322.701 176.033C322.369 173.589 331.02 168.794 334.015 165.583C337.008 162.372 339.841 151.907 332.755 146.674C298.806 154.47 267.549 169.534 240.638 190.198C240.64 190.22 240.854 192.644 242.84 196.029C244.838 199.429 241.637 201.47 241.739 202.489C241.843 203.51 243.623 203.392 242.068 205.321C240.511 207.249 242.095 206.91 240.638 208.268C239.18 209.629 237.85 210.989 236.851 211.668C235.852 212.349 236.186 214.389 234.188 216.77C232.192 219.149 228.532 221.189 228.532 224.928C228.532 228.668 222.876 233.768 222.21 235.808C221.545 237.849 215.887 245.668 215.556 250.768C215.222 255.868 215.222 261.307 215.556 264.367C215.887 267.428 216.055 270.828 215.305 274.567C214.557 278.307 213.891 281.707 213.558 288.507C213.226 295.307 215.887 298.367 222.21 300.407C228.532 302.448 240.494 308.227 243.498 312.646C246.501 317.067 248.165 322.506 250.494 323.186C252.824 323.867 254.82 331.006 262.473 336.446C270.127 341.885 284.434 342.575 290.757 349.54C297.08 356.506 308.726 373.48 311.721 382.843C314.715 392.204 319.706 395.654 325.03 400.218C330.355 404.785 337.008 409.884 342.002 410.224C346.993 410.564 349.028 408.427 348.841 406.606C348.657 404.785 342.334 399.345 341.335 397.985C340.338 396.624 338.342 387.443 335.345 380.985C332.351 374.525 332.019 374.261 333.016 371.163C334.015 368.066 336.011 361.277 339.006 359.57C342.002 357.866 344.33 359.11 346.326 356.107C348.323 353.106 349.028 351.415 348.841 349.54C348.657 347.665 345.661 346.504 342.666 346.235C339.671 345.966 338.674 343.246 334.68 342.565C330.687 341.885 325.03 340.185 323.7 337.806C322.369 335.427 319.373 334.746 317.377 335.087C315.381 335.427 309.391 336.446 305.398 332.367C301.404 328.286 301.072 320.467 300.407 316.386C299.741 312.306 299.076 310.946 300.075 307.888C301.072 304.827 301.072 302.427 305.731 300.226C310.39 298.027 318.042 296.308 322.701 300.226C327.36 304.148 336.678 301.086 338.674 298.707C340.67 296.327 346.326 289.188 350.985 288.846C355.644 288.507 363.296 288.846 366.292 286.128C369.287 283.407 380.601 277.673 382.597 273.06C384.593 268.447 392.246 255.069 392.246 250.709C392.246 246.347 406.222 237.849 410.215 239.207C414.207 240.57 419.532 234.109 421.529 234.109C423.525 234.109 429.515 235.128 432.843 231.049C436.17 226.968 438.831 224.228 441.492 220.329C444.157 216.428 446.151 210.31 436.503 207.249Z" fill="#108C6C"/>
<path d="M415.754 527.755C415.754 527.755 404.535 520.577 395.001 516.477C385.47 512.376 378.443 497.863 375.935 494.866C373.427 491.87 371.42 465.726 375.935 461.113C380.451 456.498 384.997 448.808 388.745 442.658C392.491 436.506 393.997 432.406 392.491 429.841C390.987 427.28 390.987 412.723 392.491 410.259C393.997 407.797 401.522 403.184 405.037 403.697C408.547 404.21 419.587 401.056 424.101 403.659C428.616 406.261 445.676 415.475 453.201 415.995C460.728 416.513 468.253 423.176 474.274 419.589C480.295 416 489.131 420.102 494.244 427.789C499.36 435.48 505.38 443.304 513.91 448.364C522.439 453.422 521.698 458.037 526.584 459.061C531.47 460.087 542.384 463.13 548.298 467.265C554.213 471.399 552.271 476.492 547.39 482.644C542.508 488.796 536.434 498.535 532.447 504.687C528.46 510.839 529.913 520.066 532.447 522.629C534.982 525.192 532.974 535.957 529.464 539.035C525.951 542.109 518.424 547.236 515.416 552.875C512.404 558.514 512.694 562.696 505.776 565.219C498.858 567.742 483.304 574.919 473.772 577.226C464.239 579.532 456.21 580.077 449.689 585.7C443.166 591.323 442.249 606.592 436.109 609.21C429.971 611.83 411.558 623.605 404.535 622.843C397.51 622.082 397.52 620.646 401.528 615.468C405.539 610.291 415.682 601.173 421.398 592.86C427.113 584.547 419.587 576.521 424.603 573.155C429.62 569.792 430.497 559.795 432.066 556.847C433.635 553.901 433.212 537.529 415.754 527.755Z" fill="#0F8F6E"/>
<path d="M559.9 298.566C560.904 300.656 566.255 303.047 570.269 305.099C574.282 307.149 578.054 303.995 579.68 298.566C581.307 293.137 588.332 292.111 592.012 294.163C595.691 296.213 599.703 297.239 602.38 296.554C605.02 295.88 610.144 293.87 610.276 293.816C594.96 255.943 570.731 222.791 540.24 197.111C540.237 197.118 537.486 201.239 533.142 205.32C528.794 209.406 527.717 212.482 526.582 214.874C525.449 217.267 522.105 227.519 523.443 231.962C524.779 236.405 524.223 239.481 529.185 243.24C534.145 247 538.559 248.275 536.351 255.157C534.145 262.036 535.819 269.387 533.476 273.059C531.134 276.733 530.866 283.909 536.351 288.694C541.839 293.478 548.862 292.454 550.536 292.795C552.207 293.137 558.896 296.476 559.9 298.566Z" fill="#0F8F6E"/>
<path d="M395.002 356.108C395.002 356.108 395.002 360.806 391.657 363.882C388.313 366.958 384.968 372.425 388.313 373.11C391.657 373.792 398.682 374.801 400.352 375.835C402.026 376.868 410.724 381.653 413.064 379.944C415.404 378.237 417.078 374.134 419.419 373.792C421.759 373.451 422.429 367.393 424.436 365.466C426.444 363.54 433.469 356.706 434.135 351.235C434.805 345.768 435.473 337.566 434.135 335.516C432.799 333.466 423.433 332.099 422.429 329.364C421.425 326.63 415.46 324.58 410.919 327.312C406.373 330.047 404.367 336.199 403.699 340.642C403.029 345.085 394.668 348.334 395.002 356.108Z" fill="#108C6C"/>
<path d="M538.818 211.019L536.062 208.903C536.062 208.903 536.882 207.794 538.232 205.63C539.596 203.493 541.446 200.35 543.507 196.482C547.63 188.746 552.44 178.018 556.312 166.918C560.185 155.824 563.337 144.462 565.138 135.811C566.196 131.522 566.722 127.869 567.232 125.343C567.702 122.809 567.97 121.36 567.97 121.36L571.367 121.955C571.367 121.955 571.096 123.421 570.619 125.987C570.104 128.545 569.569 132.241 568.499 136.586C566.674 145.345 563.482 156.859 559.556 168.112C555.627 179.371 550.742 190.271 546.533 198.164C544.431 202.114 542.537 205.33 541.126 207.543C539.747 209.757 538.818 211.019 538.818 211.019Z" fill="#108C6C"/>
<path d="M582.573 108.46C581.549 116.048 575.83 121.333 569.914 120.274C563.976 119.216 559.994 112.731 560.942 105.782C561.621 98.7882 567.051 93.4699 573.053 93.8979C579.056 94.326 583.324 100.845 582.573 108.46Z" fill="#7180F6"/>
<path d="M575.798 111.523C575.798 111.523 575.734 109.868 575.267 107.787C574.74 105.697 573.831 103.192 572.306 101.5C570.486 102.845 569.118 105.046 568.202 106.907C567.228 108.759 566.689 110.276 566.689 110.276C561.861 105.554 555.791 105.145 555.791 105.145C556.466 112.752 559.89 117.589 563.007 120.541C566.114 123.489 569.138 124.52 569.138 124.52C569.138 124.52 572.323 124.685 576.312 122.876C580.286 121.068 584.868 117.176 587.723 109.097C587.723 109.097 581.809 108.116 575.798 111.523Z" fill="#108C6C"/>
<path d="M493.344 38.1916C493.344 38.1916 490.454 38.8259 484.81 42.1583C479.165 45.4889 466.496 58.3054 466.496 58.3054C466.496 58.3054 471.136 66.892 477.033 71.5067C477.033 71.5067 483.931 68.3008 485.686 67.0202C485.686 67.0202 489.2 84.3232 482.176 94.9598C482.176 94.9598 486.188 99.8292 492.837 100.855C499.485 101.879 506.51 101.753 512.278 105.981C518.048 110.211 527.455 109.826 531.468 105.981C531.468 105.981 534.857 92.6533 531.468 80.2214C528.083 67.7896 523.192 60.8684 523.192 60.8684L525.324 62.5354C525.324 62.5354 532.599 54.4601 532.974 48.1818C532.974 48.1818 524.571 39.3388 518.55 36.0065C512.531 32.6741 505.95 33.8265 500.961 36.0065C495.973 38.1847 493.344 38.1916 493.344 38.1916Z" fill="#B9C1FF"/>
<path d="M480.266 22.3475C480.325 22.9159 481.757 29.9619 485.11 33.3879C488.465 36.8155 491.071 34.7205 492.004 35.1017C492.935 35.4829 493.495 38.1464 493.495 40.0509C493.495 41.9536 496.475 43.8581 499.268 41.7647C502.065 39.6696 500.574 29.9619 500.574 29.9619C500.574 29.9619 502.112 26.7266 500.971 22.3475C500.971 22.3475 502.397 18.731 501.392 16.6376C500.386 14.5443 498.895 15.1144 498.152 16.6376C498.152 16.6376 494.611 9.97462 489.396 11.1183C484.179 12.2586 479.522 15.1144 480.266 22.3475Z" fill="#FF9A5C"/>
<path d="M504.485 18.3503C502.81 16.0664 503.926 10.1658 501.752 6.73815C499.574 3.3122 494.983 4.45418 494.983 4.45418C494.983 4.45418 493.865 -0.68387 489.581 0.0768738C485.297 0.837618 481.384 6.73815 481.384 6.73815C481.384 6.73815 479.149 5.9774 475.051 6.73815C470.952 7.50063 466.293 10.3564 467.972 14.5431C469.648 18.7316 475.981 18.4942 475.981 18.4942C475.981 18.4942 474.305 26.7254 480.189 24.4415C480.36 24.3739 480.509 24.2803 480.672 24.2006C480.418 23.2146 480.282 22.511 480.267 22.3481C479.731 17.1425 481.998 14.2122 485.251 12.5468C486.52 11.8987 487.932 11.4378 489.396 11.1172C494.611 9.97521 498.153 16.6365 498.153 16.6365C498.897 15.115 500.386 14.5431 501.392 16.6365C502.398 18.7316 500.971 22.3481 500.971 22.3481C501.597 24.7465 501.412 26.7774 501.124 28.1464C501.334 28.1863 501.553 28.2487 501.752 28.2487C507.213 28.2487 506.161 20.6343 504.485 18.3503Z" fill="#753519"/>
<path d="M480.672 24.2014C480.672 24.2014 487.089 21.4288 487.546 11.6154C487.546 11.6154 489.52 17.7342 498.152 16.6373C498.152 16.6373 497.471 8.46494 490.361 6.41665C483.251 4.36836 478.046 16.4831 478.046 16.4831C478.046 16.4831 477.139 21.3265 480.672 24.2014Z" fill="#753519"/>
<path d="M492.513 172.61C491.168 161.076 488.94 149.566 488.916 149.45L489.851 149.259C489.873 149.375 492.11 160.923 493.46 172.494L492.513 172.61Z" fill="white"/>
<path d="M144.431 537.413C144.431 537.413 146.421 537.451 147.526 537.65C148.632 537.848 149.345 539.451 149.658 540.09C149.972 540.731 148.593 540.667 147.903 539.77C147.213 538.874 147.068 538.65 147.068 538.65C147.068 538.65 146.02 538.425 145.425 538.65C144.83 538.874 144.104 538.155 143.983 537.65C143.861 537.144 144.431 537.413 144.431 537.413Z" fill="#FF9A5C"/>
<path d="M131.356 549.161C133.108 551.091 135.378 552.11 135.378 552.11C135.546 553.585 136.377 554.209 136.845 554.153C137.313 554.098 137.321 551.881 137.321 551.881C137.737 552.904 139.377 553.924 139.597 553.302C139.819 552.677 139.597 551.654 139.597 551.654C139.597 551.654 140.264 552.564 140.764 552.564C141.263 552.564 141.875 552.11 141.651 550.975C141.429 549.842 140.764 548.138 140.098 547.232C139.431 546.322 139.043 545.416 137.599 545.076C136.156 544.735 135.656 544.962 133.99 544.792C132.325 544.622 129.827 544.792 129.827 544.792L131.356 549.161Z" fill="#FF9A5C"/>
<path d="M131.931 545.632V544.717C131.931 544.717 135.988 543.461 136.794 543.75C137.599 544.04 138.359 545.197 138.803 545.632C139.248 546.067 131.931 545.632 131.931 545.632Z" fill="#FF9A5C"/>
<path d="M439.269 363.488C439.269 363.488 435.321 367.139 432.558 371.163C429.794 375.185 437.295 373.168 439.269 373.572C441.243 373.976 441.637 376.887 445.587 375.835C449.533 374.783 445.98 375.993 449.533 374.783C453.085 373.572 454.272 373.976 457.823 373.572C461.377 373.168 460.678 370.531 462.606 368.219C464.535 365.907 464.624 363.89 462.606 361.873C460.586 359.856 459.402 365.907 455.456 361.873C451.508 357.841 451.64 354.375 448.021 356.108C444.4 357.841 445.341 358.451 443.686 359.962C442.032 361.471 439.269 363.488 439.269 363.488Z" fill="#108C6C"/>
<path d="M567.731 401.654C567.731 401.654 556.222 402.462 546.485 392.378C546.485 392.378 540.037 397.755 536.352 404.747C536.352 404.747 543.456 413.218 551.485 417.115C551.485 417.115 547.849 448.363 549.774 459.199C549.774 459.199 562.536 461.62 570.433 462.155C578.326 462.694 588.063 460.14 588.063 460.14L585.827 421.551L588.063 424.241C588.063 424.241 596.222 416.578 596.353 412.41C596.353 412.41 584.72 401.252 579.681 399.504C574.642 397.755 572.634 402.056 567.731 401.654Z" fill="#3D4AA9"/>
<path d="M576.656 512.645L575.703 512.629C575.718 511.75 576.056 491.106 576.655 488.256C577.24 485.459 580.749 465.977 580.786 465.782L581.722 465.957C581.688 466.154 578.174 485.649 577.586 488.462C577.006 491.217 576.66 512.433 576.656 512.645Z" fill="white"/>
<path d="M425.744 665.563H406.271C406.271 665.563 395.603 592.631 406.271 577.225C416.937 561.82 439.292 567.067 425.744 665.563Z" fill="#B9C1FF"/>
<path d="M399.948 665.563H382.566C382.566 665.563 359.763 658.297 348.843 640.535C337.922 622.774 354.121 615.243 365.972 622.844C377.826 630.442 399.948 665.563 399.948 665.563Z" fill="#EEF0FF"/>
<path d="M406.269 665.563H395.602C395.602 665.563 370.318 640.051 367.156 609.209C363.997 578.37 388.095 588.385 398.763 615.468C409.429 642.554 410.616 665.563 410.616 665.563H406.269Z" fill="#7180F6"/>
<path d="M432.065 665.563H449.448C449.448 665.563 472.25 658.297 483.171 640.535C494.092 622.774 477.893 615.243 466.041 622.844C454.19 630.442 432.065 665.563 432.065 665.563Z" fill="#EEF0FF"/>
<path d="M425.744 665.563H436.412C436.412 665.563 461.696 640.051 464.857 609.209C468.017 578.37 443.919 588.385 433.251 615.468C422.585 642.554 421.397 665.563 421.397 665.563H425.744Z" fill="#7180F6"/>
<path d="M485.634 341.929L486.667 339.775L488.008 341.744L490.116 342.799L488.19 344.17L487.157 346.324L485.815 344.355L483.707 343.3L485.634 341.929Z" fill="white"/>
<path d="M522.626 350.845L523.256 349.535L524.071 350.734L525.353 351.375L524.182 352.209L523.554 353.519L522.737 352.323L521.456 351.679L522.626 350.845Z" fill="white"/>
<path d="M528.594 333.207L529.221 331.897L530.039 333.094L531.319 333.736L530.149 334.569L529.52 335.879L528.704 334.684L527.422 334.041L528.594 333.207Z" fill="white"/>
<path d="M476.712 326.622L477.339 325.312L478.157 326.509L479.437 327.15L478.267 327.984L477.638 329.294L476.821 328.098L475.54 327.455L476.712 326.622Z" fill="white"/>
<path d="M484.455 374.964L485.082 373.654L485.9 374.853L487.18 375.494L486.01 376.327L485.382 377.638L484.565 376.442L483.283 375.797L484.455 374.964Z" fill="white"/>
<path d="M353.194 79.119L352.808 78.8348C353.184 78.2959 353.398 78.0082 353.398 78.0082L353.778 78.3028C353.778 78.3028 353.564 78.5888 353.194 79.119Z" fill="white"/>
<path d="M350.931 82.5693L350.529 82.3094C350.923 81.6751 351.289 81.105 351.618 80.6007L352.015 80.8711C351.688 81.3736 351.323 81.9403 350.931 82.5693ZM348.879 86.0386L348.465 85.7942C348.811 85.1791 349.15 84.5933 349.479 84.0405L349.886 84.2918C349.561 84.8429 349.223 85.4251 348.879 86.0386ZM346.974 89.5945L346.55 89.3692C346.866 88.7506 347.18 88.151 347.49 87.5722L347.907 87.8061C347.599 88.3815 347.286 88.9793 346.974 89.5945ZM345.222 93.2301L344.79 93.0274C345.073 92.4001 345.36 91.7866 345.65 91.187L346.077 91.4019C345.791 91.9963 345.504 92.6063 345.222 93.2301ZM343.645 96.9507L343.204 96.767C343.455 96.1293 343.713 95.5037 343.974 94.8868L344.412 95.0809C344.152 95.6943 343.896 96.3164 343.645 96.9507ZM342.263 100.744L341.813 100.588C342.027 99.9399 342.251 99.3005 342.482 98.668L342.928 98.8378C342.699 99.4651 342.477 100.101 342.263 100.744ZM341.105 104.615L340.645 104.487C340.82 103.829 341.003 103.175 341.198 102.529L341.654 102.671C341.462 103.312 341.278 103.962 341.105 104.615ZM340.526 107L340.062 106.894C340.092 106.752 340.124 106.608 340.156 106.464L340.62 106.577C340.587 106.717 340.557 106.858 340.526 107Z" fill="white"/>
<path d="M340.115 109.054L339.646 108.967C339.708 108.629 339.771 108.291 339.837 107.955L340.305 108.052C340.237 108.385 340.175 108.721 340.115 109.054Z" fill="white"/>
<path d="M356.707 80.3448L356.239 80.2547C356.357 79.6049 356.432 79.2514 356.432 79.2514L356.899 79.3519C356.899 79.3519 356.826 79.7019 356.707 80.3448Z" fill="white"/>
<path d="M356.033 84.4443L355.562 84.3716C355.672 83.6316 355.777 82.9592 355.875 82.3597L356.344 82.4411C356.247 83.0372 356.142 83.7079 356.033 84.4443ZM355.502 88.4629L355.029 88.4075C355.111 87.7005 355.195 87.0264 355.28 86.3869L355.753 86.451C355.669 87.0905 355.584 87.7629 355.502 88.4629ZM355.089 92.4971L354.615 92.4556C354.675 91.7624 354.739 91.0866 354.805 90.4281L355.28 90.48C355.214 91.1333 355.15 91.8092 355.089 92.4971ZM354.807 96.5452L354.33 96.5192C354.368 95.8312 354.41 95.1537 354.456 94.4865L354.931 94.5212C354.885 95.1849 354.844 95.8607 354.807 96.5452ZM354.666 100.595L354.19 100.586C354.2 99.9036 354.217 99.226 354.239 98.5536L354.717 98.5692C354.693 99.2399 354.676 99.9157 354.666 100.595ZM354.217 104.662C354.198 103.981 354.186 103.302 354.181 102.626L354.658 102.621C354.661 103.295 354.675 103.971 354.693 104.648L354.217 104.662Z" fill="white"/>
</svg>
