<svg width="700" height="645" viewBox="0 0 700 645" fill="none" xmlns="http://www.w3.org/2000/svg">
<g clip-path="url(#clip0_111_552)">
<path d="M507.755 221.64C522.384 215.396 537.014 209.15 551.643 202.906C556.069 201.016 560.854 198.794 562.983 194.378C565.979 188.166 562.213 180.583 557.143 176.007C548.744 168.43 537.04 165.65 525.887 166.168C514.733 166.685 503.933 170.184 493.364 173.877C498.016 189.75 502.669 205.621 507.755 221.64Z" fill="#9E6834"/>
<path d="M375.781 326.27C375.781 326.27 297.429 355.313 283.914 360.468C278.996 362.344 150.688 545.974 90.4149 670.753L-55.9729 679.107L-32.553 500.342C-32.553 500.342 175.611 271.428 181.51 256.823C187.407 242.217 196.607 222.248 209.474 202.494L375.781 326.27Z" fill="#9E6834"/>
<path d="M699.505 661.57C699.505 661.57 511.571 315.04 507.058 299.135C502.547 283.23 525.48 202.11 513.292 159.155C501.104 116.2 479.259 83.2948 459.481 72.6207C444.34 64.4494 401.519 52.5852 395.042 56.7855C390.547 59.6999 379.128 81.114 430.146 111.581C430.146 111.581 441.992 151.589 439.927 153.927C437.861 156.267 385.008 125.496 368.154 111.129C351.302 96.7616 300.994 18.4586 289.217 17.4628C277.442 16.4684 255.643 30.7627 261.112 58.115C261.112 58.115 217.815 66.2813 226.763 103.666C226.763 103.666 188.596 112.048 202.831 153.928C202.831 153.928 179.962 183.584 186.736 203.518C193.51 223.451 209.546 251.269 237.468 284.959C265.389 318.649 356.014 351.088 363.133 363.3C370.249 375.511 483.008 665.904 483.008 665.904L699.505 661.57Z" fill="#E9BD8F"/>
<path d="M260.324 60.7954C269.845 80.9755 279.366 101.154 288.887 121.334C291.603 127.087 294.247 134.165 290.667 139.429" fill="#DCB082"/>
<path d="M260.324 60.7954C269.845 80.9755 279.366 101.154 288.887 121.334C291.603 127.087 294.247 134.165 290.667 139.429" stroke="#DCAA76" stroke-width="4" stroke-miterlimit="10" stroke-linecap="round" stroke-linejoin="round"/>
<path d="M227.121 107.056C236.695 127.351 246.271 147.646 255.846 167.94C258.224 172.982 260.565 179.101 257.604 183.826" fill="#DCB082"/>
<path d="M227.121 107.056C236.695 127.351 246.271 147.646 255.846 167.94C258.224 172.982 260.565 179.101 257.604 183.826" stroke="#DCAA76" stroke-width="4" stroke-miterlimit="10" stroke-linecap="round" stroke-linejoin="round"/>
<path d="M203.523 155.415C209.545 172.866 218.524 192.926 226.592 209.537C228.1 212.642 229.662 215.788 230.21 219.193C230.758 222.598 230.14 226.373 227.754 228.872" fill="#DCB082"/>
<path d="M203.523 155.415C209.545 172.866 218.524 192.926 226.592 209.537C228.1 212.642 229.662 215.788 230.21 219.193C230.758 222.598 230.14 226.373 227.754 228.872" stroke="#DCAA76" stroke-width="4" stroke-miterlimit="10" stroke-linecap="round" stroke-linejoin="round"/>
<path d="M399.84 121.947C404.848 111.556 417.388 107.202 427.793 112.241C431.893 114.227 435.637 116.524 438.401 118.77C443.752 123.116 447.912 128.841 449.92 136.639C451.302 142.013 450.245 147.727 447.262 152.412C433.415 174.158 419.444 195.93 404.053 218.003C398.735 225.63 388.973 229.197 380.171 226.143C379.998 226.083 379.827 226.021 379.655 225.96C368.332 221.803 362.69 208.971 366.909 197.706C376.382 172.405 386.837 148.925 399.84 121.947Z" fill="#9E6834"/>
<path d="M364.104 78.7291C374.552 77.7935 385.318 81.1005 393.422 87.7357C401.525 94.3708 406.87 104.254 405.965 115.122C393.214 150.227 376.192 183.789 354.745 213.785C349.544 221.06 340.637 225.003 331.808 223.463C331.203 223.358 330.602 223.231 330.005 223.087C329.935 223.069 329.863 223.052 329.793 223.035C318.413 220.172 311.57 208.462 314.381 197.109C324.851 154.835 341.783 114.285 364.104 78.7291Z" fill="#9E6834"/>
<path d="M323.878 46.3583C333.9 46.388 343.887 49.6811 351.948 55.6139C360.011 61.5466 366.105 70.0877 367.532 79.4137C356.019 114.049 340.868 147.484 321.227 179.19C314.822 189.528 300.906 192.758 290.928 185.775C290.808 185.693 290.692 185.609 290.574 185.524C282.969 180.08 279.914 170.247 282.79 161.368C295.285 122.8 308.063 84.2877 323.878 46.3583Z" fill="#9E6834"/>
<path d="M315.17 4.95578C322.335 6.86466 329.184 10.2935 334.866 14.9158C341.053 19.9489 343.93 28.0297 342.181 35.7967C337.349 57.2585 330.507 78.3341 321.887 99.077C317.576 109.447 305.64 114.234 295.288 109.806C294.567 109.497 293.847 109.171 293.128 108.824C285.568 105.188 280.982 97.2967 281.653 88.9587C283.577 65.064 286.827 40.7889 293.661 17.1184C296.312 7.94293 305.912 2.48904 315.17 4.95578Z" fill="#9E6834"/>
<path d="M338.337 51.3143C332.504 69.4623 324.774 87.0033 314.932 103.874C312.3 108.387 307.231 111.108 302.048 110.349C302.018 110.345 301.986 110.341 301.954 110.335" stroke="#905E2D" stroke-width="4" stroke-miterlimit="10" stroke-linecap="round" stroke-linejoin="round"/>
<path d="M364.726 82.7703C351.918 117.118 336.693 150.57 319.198 182.8" stroke="#905E2D" stroke-width="4" stroke-miterlimit="10" stroke-linecap="round" stroke-linejoin="round"/>
<path d="M406.032 115.842C395.961 142.067 383.695 167.457 369.404 191.659" stroke="#905E2D" stroke-width="4" stroke-miterlimit="10" stroke-linecap="round" stroke-linejoin="round"/>
</g>
<defs>
<clipPath id="clip0_111_552">
<rect width="692.01" height="637.037" fill="white" transform="translate(699.225 636.995) rotate(179.347)"/>
</clipPath>
</defs>
</svg>
